HIERARCHY
ROOT Hips
{
	OFFSET -3.958830 18.904000 13.208200
	CHANNELS 6 Xposition Yposition Zposition Zrotation Yrotation Xrotation 
	JOINT LHipJoint
	{
		OFFSET 0.000000 0.000000 0.000000
		CHANNELS 3 Zrotation Yrotation Xrotation
		JOINT LeftUpLeg
		{
			OFFSET 1.800000 -1.400000 0.085000
			CHANNELS 3 Zrotation Yrotation Xrotation
			JOINT LeftLeg
			{
				OFFSET 2.215000 -6.000000 0.000000
				CHANNELS 3 Zrotation Yrotation Xrotation
				JOINT LeftFoot
				{
					OFFSET 2.500000 -6.900000 0.000000
					CHANNELS 3 Zrotation Yrotation Xrotation
					JOINT LeftToeBase
					{
						OFFSET 0.200000 -0.500000 1.950000
						CHANNELS 3 Zrotation Yrotation Xrotation
						End Site
						{
							OFFSET 0.000000 0.000000 0.000000
						}
					}
				}
			}
		}
	}
	JOINT RHipJoint
	{
		OFFSET 0.000000 0.000000 0.000000
		CHANNELS 3 Zrotation Yrotation Xrotation
		JOINT RightUpLeg
		{
			OFFSET -1.800000 -1.400000 0.085000
			CHANNELS 3 Zrotation Yrotation Xrotation
			JOINT RightLeg
			{
				OFFSET -2.215000 -6.000000 0.000000
				CHANNELS 3 Zrotation Yrotation Xrotation
				JOINT RightFoot
				{
					OFFSET -2.500000 -6.900000 0.000000
					CHANNELS 3 Zrotation Yrotation Xrotation
					JOINT RightToeBase
					{
						OFFSET -0.200000 -0.500000 1.950000
						CHANNELS 3 Zrotation Yrotation Xrotation
						End Site
						{
							OFFSET 0.000000 0.000000 0.000000
						}
					}
				}
			}
		}
	}
	JOINT LowerBack
	{
		OFFSET 0.000000 0.000000 0.000000
		CHANNELS 3 Zrotation Yrotation Xrotation
		JOINT Spine
		{
			OFFSET -0.087000 1.940000 -0.288900
			CHANNELS 3 Zrotation Yrotation Xrotation
			JOINT Spine1
			{
				OFFSET 0.000000 1.950000 0.060000
				CHANNELS 3 Zrotation Yrotation Xrotation
				JOINT Neck
				{
					OFFSET 0.000000 0.000000 0.000000
					CHANNELS 3 Zrotation Yrotation Xrotation
					JOINT Neck1
					{
						OFFSET 0.000000 1.600000 0.340000
						CHANNELS 3 Zrotation Yrotation Xrotation
						JOINT Head
						{
							OFFSET 0.000000 1.667000 -0.240000
							CHANNELS 3 Zrotation Yrotation Xrotation
							End Site
							{
								OFFSET 0.000000 0.000000 0.000000
							}
						}
					}
				}
				JOINT LeftShoulder
				{
					OFFSET 0.000000 0.000000 0.000000
					CHANNELS 3 Zrotation Yrotation Xrotation
					JOINT LeftArm
					{
						OFFSET 2.700000 1.550000 -0.730000
						CHANNELS 3 Zrotation Yrotation Xrotation
						JOINT LeftForeArm
						{
							OFFSET 5.450000 0.000000 0.000000
							CHANNELS 3 Zrotation Yrotation Xrotation
							JOINT LeftHand
							{
								OFFSET 3.450000 0.000000 0.000000
								CHANNELS 3 Zrotation Yrotation Xrotation
								JOINT LeftHandIndex1
								{
									OFFSET 0.750000 0.000000 0.000000
									CHANNELS 3 Zrotation Yrotation Xrotation
									End Site
									{
										OFFSET 0.000000 0.000000 0.000000
									}
								}
							}
						}
					}
				}
				JOINT RightShoulder
				{
					OFFSET 0.000000 0.000000 0.000000
					CHANNELS 3 Zrotation Yrotation Xrotation
					JOINT RightArm
					{
						OFFSET -2.700000 1.550000 -0.730000
						CHANNELS 3 Zrotation Yrotation Xrotation
						JOINT RightForeArm
						{
							OFFSET -5.450000 0.000000 0.000000
							CHANNELS 3 Zrotation Yrotation Xrotation
							JOINT RightHand
							{
								OFFSET -3.450000 0.000000 0.000000
								CHANNELS 3 Zrotation Yrotation Xrotation
								JOINT RightHandIndex1
								{
									OFFSET -0.750000 0.000000 0.000000
									CHANNELS 3 Zrotation Yrotation Xrotation
									End Site
									{
										OFFSET 0.000000 0.000000 0.000000
									}
								}
							}
						}
					}
				}
			}
		}
	}
}
MOTION
Frames: 4
Frame Time: 0.016667
0.635440 15.731780 -1.562640 -7.631684 -15.571462 -0.708943 -15.119800 11.979657 2.210228 3.605189 -3.845973 -21.002856 -3.293307 8.843816 34.836342 -0.425017 6.543107 2.435984 0.610850 0.059970 0.465730 18.650309 -8.112782 6.106025 -28.184086 9.516515 -41.132853 39.209294 -47.504349 68.773440 -3.353175 -15.820010 -0.170759 0.224620 0.331130 0.144180 -4.284593 -2.608036 -8.827746 14.670653 -2.296510 19.293626 -5.574004 -0.027724 -4.461249 1.127542 -7.465893 -3.937741 -14.998855 7.771820 31.422590 -1.570460 2.121240 -9.186540 -34.895455 1.530788 -3.378077 -36.718927 2.506230 -5.751839 -21.331605 -18.359582 0.730784 -3.724634 2.943057 0.644710 0.165460 -0.183490 0.332370 31.353401 2.873927 2.576836 37.585761 -5.018625 -8.796581 15.690725 22.471886 0.888389 1.806522 -1.433405 -0.381370 0.392230 -0.072230 -0.376380 
0.626600 15.712000 -1.558420 -7.023766 -15.802090 -0.723558 -15.131235 11.999445 2.286518 3.430526 -3.942339 -21.121434 -3.917555 9.119508 34.916592 -0.401634 6.637817 2.408598 0.572960 0.020260 0.427430 18.622180 -8.182550 5.972348 -27.389978 9.644413 -39.870126 38.383886 -46.459849 68.544513 -3.297182 -15.726508 -0.144947 0.205580 0.359970 0.133240 -4.225448 -2.618298 -8.806327 13.797547 -1.968905 18.807077 -5.317205 0.133571 -4.369683 1.005675 -7.546337 -4.025103 -15.316444 8.111579 31.722600 -1.243270 2.215600 -8.303020 -34.463495 1.737106 -3.342075 -37.410577 2.447398 -5.752660 -20.478401 -18.190345 0.607091 -3.756502 2.916712 0.633950 0.181480 -0.209560 0.328910 31.220890 2.820222 2.613299 38.134334 -5.170698 -8.883717 15.287274 22.150802 0.798639 1.807648 -1.411287 -0.396670 0.402190 -0.047140 -0.372420 
0.621980 15.680440 -1.549810 -6.494639 -16.753839 -0.501789 -15.110449 11.978263 2.424738 3.715580 -4.072876 -21.563293 -5.487019 9.841555 35.075334 -0.340698 6.860356 2.329419 0.542380 -0.011210 0.410290 18.612141 -8.358774 5.716024 -25.555832 10.106066 -37.592507 37.384447 -44.374583 67.444322 -3.196729 -15.461018 -0.096591 0.184570 0.373000 0.137100 -4.252052 -2.432904 -8.742565 13.526979 -1.552460 17.861781 -5.845761 0.486263 -4.300049 1.144966 -7.444095 -3.981719 -15.091880 8.216595 31.963526 -1.540530 2.630950 -7.394110 -34.514338 1.925753 -3.442821 -37.918616 2.257656 -5.403754 -18.310402 -15.780643 0.041616 -3.795862 2.876478 0.615190 0.199000 -0.222970 0.319670 30.891944 2.583291 2.594867 39.551695 -5.303903 -9.009347 14.709213 21.270087 0.585746 1.832444 -1.391987 -0.396510 0.390510 -0.033890 -0.369900 
0.604450 15.644910 -1.544440 -5.943386 -17.670753 0.440996 -15.088179 11.874421 2.579784 3.818354 -4.397587 -22.745066 -6.779002 10.355211 35.140630 -0.316271 7.082720 2.276997 0.485480 -0.083430 0.360980 18.625859 -8.590843 5.363119 -22.984811 10.325598 -35.255997 35.336123 -41.376875 66.190685 -3.017537 -15.134097 -0.038981 0.171640 0.466280 0.154120 -4.331853 -2.084673 -8.560364 13.086283 -1.074872 15.494942 -6.361421 0.728736 -3.737758 1.103372 -7.186066 -3.400955 -14.056857 8.235322 30.482701 -1.758620 3.034620 -4.976630 -34.474062 2.596396 -3.730994 -38.453289 1.677147 -4.835123 -15.441946 -13.382395 -0.474464 -3.922010 2.848629 0.548030 0.283600 -0.303120 0.321980 30.792407 1.622801 2.110512 40.752455 -4.972431 -8.654076 14.692498 19.427928 0.304767 1.840418 -1.410762 -0.425930 0.389040 0.003970 -0.359660 
